M48
;GenerationSoftware,Autodesk,EAGLE,9.5.2*%
;CreationDate,2020-01-07T01:14:57Z*%
FMAT,2
ICI,OFF
METRIC,TZ,000.000
T3C0.350
T2C0.813
T1C1.016
%
G90
M71
T1
X43180Y67310
X50800Y30480
X35560Y33020
X34290Y36830
X55880Y67310
X53340Y67310
X50800Y67310
X48260Y67310
X45720Y67310
X72390Y67310
X40640Y67310
X48260Y30480
X45720Y30480
X85090Y67310
X82550Y67310
X80010Y67310
X77470Y67310
X74930Y67310
X43180Y30480
X69850Y67310
X67310Y67310
X64770Y67310
X62230Y67310
X59690Y67310
X34290Y46990
X34290Y49530
X34290Y52070
X34290Y54610
X40640Y58420
X43180Y58420
X45720Y58420
X48260Y58420
X50800Y58420
X53340Y58420
X36830Y29210
X49530Y63500
X46990Y63500
X41910Y74930
X44450Y74930
X46990Y74930
X49530Y74930
X52070Y74930
X54610Y74930
X57150Y74930
X59690Y74930
X62230Y74930
X64770Y74930
X67310Y74930
X69850Y74930
X72390Y74930
X74930Y74930
X77470Y74930
X80010Y74930
X82550Y74930
X55880Y30480
X53340Y30480
T2
X39370Y24130
X41910Y24130
X85090Y26670
X85090Y29210
X58420Y15240
X55880Y15240
X41910Y35560
X39370Y35560
X72390Y20320
X69850Y20320
X44450Y20320
X46990Y20320
X33020Y40640
X33020Y43180
X54610Y20320
X52070Y20320
X49530Y20320
T3
X89154Y47396
X87173Y44958
M30