M48
;GenerationSoftware,Autodesk,EAGLE,9.5.2*%
;CreationDate,2020-01-07T01:19:38Z*%
FMAT,2
ICI,OFF
METRIC,TZ,000.000
T5C0.700
T4C1.000
T3C1.016
T2C3.000
T1C3.500
%
G90
M71
T1
X86741Y38100
T2
X57404Y49657
X57404Y31623
X87376Y31623
X87376Y49657
T3
X85090Y58420
X87630Y58420
X90170Y58420
X92710Y58420
X39370Y57150
X39370Y54610
X39370Y52070
X39370Y49530
X45720Y71120
X43180Y30480
X43180Y33020
X43180Y35560
X43180Y38100
X43180Y40640
X43180Y43180
X43180Y45720
X43180Y48260
X44450Y78740
X44450Y76200
X46990Y64770
X41910Y64770
X44450Y64770
T4
X56515Y38100
X56515Y35560
X56515Y45720
X56515Y43180
X56515Y40640
T5
X60810Y82120
X62810Y82120
X64810Y82120
X66810Y82120
X68810Y82120
X70810Y82120
X72810Y82120
X54810Y82120
X56810Y60120
X58810Y60120
X60810Y60120
X62810Y60120
X64810Y60120
X54810Y60120
X68810Y60120
X70810Y60120
X72810Y60120
X56810Y82120
X58810Y82120
X66810Y60120
M30